# Blender 3.3.1
# www.blender.org
mtllib wall.mtl
o Wall
v -1.826601 -0.951112 2.062171
v -1.826601 0.378247 2.062171
v -1.826601 -0.951112 -1.158449
v -1.826601 0.378247 -1.158449
v 1.721588 -0.951112 2.062171
v 1.721588 0.378247 2.062171
v 1.721588 -0.951112 -1.158449
v 1.721588 0.378247 -1.158449
v -1.116382 1.650166 1.768418
v -1.116382 1.650166 -0.678398
v 1.011369 1.650166 1.768418
v 1.011369 1.650166 -0.678398
v -1.116382 2.397465 1.582120
v -1.116382 2.397465 -0.678398
v 1.011369 2.397465 1.582120
v 1.011369 2.397465 -0.678398
v -0.408447 1.650166 1.972421
v 0.303435 1.650166 1.972421
v -0.408447 2.397465 1.972421
v 0.303435 2.397465 1.972421
v 1.440535 1.650166 0.843168
v 1.440535 1.650166 0.060554
v 1.440535 2.397465 0.843168
v 1.440535 2.397465 0.060554
v -0.439306 1.650166 -1.111999
v 0.334293 1.650166 -1.111999
v -0.439306 2.397465 -1.111999
v 0.334293 2.397465 -1.111999
v -1.615193 1.650166 0.811429
v -1.615193 1.650166 0.092293
v -1.615193 2.397465 0.811429
v -1.615193 2.397465 0.092293
v -1.116382 2.297290 1.582120
v -1.116382 2.297290 -0.678398
v 1.011369 2.297290 1.582120
v 1.011369 2.297290 -0.678398
v -1.116382 3.406370 1.582120
v -0.054474 4.468277 0.520213
v -0.054474 4.468277 0.383509
v -1.116382 3.406370 -0.678398
v -0.050539 4.468277 0.520213
v 1.011369 3.406370 1.582120
v -0.050539 4.468277 0.383509
v 1.011369 3.406370 -0.678398
v 1.440535 1.650166 1.781577
v 1.249691 1.650166 1.972421
v 1.249691 2.397465 1.972421
v 1.440535 2.397465 1.781577
v -1.451041 1.650166 1.972421
v -1.615193 1.650166 1.808269
v -1.615193 2.397465 1.808269
v -1.451041 2.397465 1.972421
v -1.615193 1.650166 -0.979540
v -1.482735 1.650166 -1.111999
v -1.482735 2.397465 -1.111999
v -1.615193 2.397465 -0.979540
v 1.311079 1.650166 -1.111999
v 1.440535 1.650166 -0.982543
v 1.440535 2.397465 -0.982543
v 1.311079 2.397465 -1.111999
vn -1.0000 -0.0000 -0.0000
vn -0.0000 -0.0000 -1.0000
vn 1.0000 -0.0000 -0.0000
vn -0.0000 -0.0000 1.0000
vn -0.0000 -1.0000 -0.0000
vn 0.8731 0.4875 -0.0000
vn -0.8731 0.4875 -0.0000
vn -0.0000 0.2250 0.9744
vn -0.0000 0.3531 -0.9356
vn -0.0000 1.0000 -0.0000
vn -0.0001 1.0000 -0.0000
vn -0.7071 0.7071 -0.0000
vn -0.0000 0.7071 -0.7071
vn 0.7071 0.7071 -0.0000
vn -0.0000 0.7071 0.7071
vn 0.7071 -0.0000 0.7071
vn -0.7071 -0.0000 0.7071
vn -0.7071 -0.0000 -0.7071
vn 0.7071 -0.0000 -0.7071
vt 0.375000 0.000000
vt 0.375000 1.000000
vt 0.125000 0.750000
vt 0.625000 0.000000
vt 0.625000 1.000000
vt 0.375000 0.250000
vt 0.125000 0.500000
vt 0.625000 0.250000
vt 0.375000 0.750000
vt 0.625000 0.750000
vt 0.375000 0.500000
vt 0.625000 0.500000
vt 0.625000 1.000000
vt 0.625000 0.000000
vt 0.625000 0.250000
vt 0.625000 0.750000
vt 0.625000 0.500000
vt 0.875000 0.750000
vt 0.875000 0.500000
vt 0.625000 0.750000
vt 0.625000 0.500000
vt 0.625000 1.000000
vt 0.625000 0.750000
vt 0.875000 0.750000
vt 0.625000 1.000000
vt 0.625000 0.750000
vt 0.625000 0.750000
vt 0.625000 0.500000
vt 0.625000 0.750000
vt 0.625000 0.500000
vt 0.625000 0.250000
vt 0.625000 0.500000
vt 0.875000 0.500000
vt 0.625000 0.250000
vt 0.625000 0.500000
vt 0.625000 1.000000
vt 0.625000 0.000000
vt 0.625000 0.250000
vt 0.875000 0.750000
vt 0.625000 0.000000
vt 0.625000 0.250000
vt 0.875000 0.500000
vt 0.875000 0.750000
vt 0.875000 0.500000
vt 0.625000 0.750000
vt 0.625000 0.500000
vt 0.875000 0.750000
vt 0.750231 0.632559
vt 0.750231 0.617441
vt 0.875000 0.500000
vt 0.749769 0.632559
vt 0.625000 0.750000
vt 0.749769 0.617441
vt 0.625000 0.500000
vt 0.625000 0.750000
vt 0.625000 0.750000
vt 0.625000 0.750000
vt 0.625000 0.750000
vt 0.625000 0.000000
vt 0.625000 1.000000
vt 0.625000 1.000000
vt 0.625000 0.000000
vt 0.875000 0.750000
vt 0.625000 0.000000
vt 0.875000 0.750000
vt 0.625000 0.000000
vt 0.625000 1.000000
vt 0.625000 0.250000
vt 0.625000 0.250000
vt 0.875000 0.500000
vt 0.625000 0.250000
vt 0.875000 0.500000
vt 0.625000 0.250000
vt 0.625000 0.500000
vt 0.625000 0.500000
vt 0.625000 0.500000
vt 0.625000 0.500000
s 0
usemtl Material.002
f 1/1/1 2/4/1 4/8/1 3/6/1
f 3/6/2 4/8/2 8/12/2 7/11/2
f 7/11/3 8/12/3 6/10/3 5/9/3
f 5/9/4 6/10/4 2/5/4 1/2/4
f 3/7/5 7/11/5 5/9/5 1/3/5
f 6/10/6 8/12/6 12/17/6 11/16/6
f 9/13/5 11/16/5 18/23/5 17/22/5
f 4/8/7 2/4/7 9/14/7 10/15/7
f 2/5/8 6/10/8 11/16/8 9/13/8
f 8/12/9 4/8/9 10/15/9 12/17/9
f 15/20/1 16/21/1 36/46/1 35/45/1
f 16/21/10 15/20/10 23/29/10 24/30/10
f 14/19/10 27/33/10 55/70/10 56/72/10 32/42/10
f 17/22/4 18/23/4 20/26/4 19/25/4
f 21/27/3 23/29/3 48/58/3 45/55/3
f 30/38/1 32/41/1 56/73/1 53/68/1
f 15/20/10 13/18/10 19/24/10 20/26/10
f 21/27/3 22/28/3 24/30/3 23/29/3
f 15/20/10 20/26/10 47/57/10 48/58/10 23/29/10
f 26/32/2 28/35/2 60/77/2 57/74/2
f 11/16/5 12/17/5 22/28/5 21/27/5
f 20/26/4 18/23/4 46/56/4 47/57/4
f 26/32/2 25/31/2 27/34/2 28/35/2
f 16/21/10 24/30/10 59/76/10 60/77/10 28/35/10
f 24/30/3 22/28/3 58/75/3 59/76/3
f 12/17/5 10/15/5 25/31/5 26/32/5
f 14/19/10 16/21/10 28/35/10 27/33/10
f 25/31/5 10/15/5 30/38/5 53/68/5 54/69/5
f 30/38/1 29/37/1 31/40/1 32/41/1
f 9/13/5 17/22/5 49/60/5 50/61/5 29/36/5
f 19/24/10 13/18/10 31/39/10 51/63/10 52/65/10
f 13/18/10 14/19/10 32/42/10 31/39/10
f 31/40/1 29/37/1 50/62/1 51/64/1
f 10/15/5 9/14/5 29/37/5 30/38/5
f 13/18/2 15/20/2 35/45/2 33/43/2
f 16/21/4 14/19/4 34/44/4 36/46/4
f 34/44/1 33/43/1 37/47/1 40/50/1
f 35/45/3 36/46/3 44/54/3 42/52/3
f 33/43/4 35/45/4 42/52/4 37/47/4
f 36/46/2 34/44/2 40/50/2 44/54/2
f 14/19/3 13/18/3 33/43/3 34/44/3
f 43/53/11 39/49/11 38/48/11 41/51/11
f 38/48/12 39/49/12 40/50/12 37/47/12
f 39/49/13 43/53/13 44/54/13 40/50/13
f 43/53/14 41/51/14 42/52/14 44/54/14
f 41/51/15 38/48/15 37/47/15 42/52/15
f 45/55/16 48/58/16 47/57/16 46/56/16
f 18/23/5 11/16/5 21/27/5 45/55/5 46/56/5
f 51/64/17 50/62/17 49/59/17 52/66/17
f 17/22/4 19/25/4 52/67/4 49/60/4
f 53/68/18 56/73/18 55/71/18 54/69/18
f 27/34/2 25/31/2 54/69/2 55/71/2
f 59/76/19 58/75/19 57/74/19 60/77/19
f 22/28/5 12/17/5 26/32/5 57/74/5 58/75/5
