# Blender 4.0.2
# www.blender.org
mtllib fence_electric.mtl
o Cube
v 1.000000 -1.000000 -1.000000
v 1.000000 -1.000000 1.000000
v -1.000000 -1.000000 -1.000000
v -1.000000 -1.000000 1.000000
v 0.066764 3.553110 -0.066764
v 1.000000 2.619874 -1.000000
v 0.066764 3.553110 0.066764
v 1.000000 2.619874 1.000000
v -0.066764 3.553110 -0.066764
v -1.000000 2.619874 -1.000000
v -0.066764 3.553110 0.066764
v -1.000000 2.619874 1.000000
vn -0.0000 -0.0000 1.0000
vn -1.0000 -0.0000 -0.0000
vn -0.0000 -1.0000 -0.0000
vn -0.0000 1.0000 -0.0000
vn 1.0000 -0.0000 -0.0000
vn -0.0000 0.7071 0.7071
vn 0.7071 0.7071 -0.0000
vn -0.7071 0.7071 -0.0000
vn -0.0000 0.7071 -0.7071
vn -0.0000 -0.0000 -1.0000
vt 0.375000 0.750000
vt 0.573758 0.750000
vt 0.573758 1.000000
vt 0.375000 1.000000
vt 0.375000 0.000000
vt 0.573758 0.000000
vt 0.573758 0.250000
vt 0.375000 0.250000
vt 0.125000 0.500000
vt 0.375000 0.500000
vt 0.125000 0.750000
vt 0.741654 0.616655
vt 0.758345 0.616654
vt 0.758346 0.633346
vt 0.741655 0.633346
vt 0.573758 0.500000
vt 0.875000 0.750000
vt 0.625000 0.750000
vt 0.875000 0.500000
vt 0.625000 0.500000
s 0
usemtl Material
f 2/1/1 8/2/1 12/3/1 4/4/1
f 4/5/2 12/6/2 10/7/2 3/8/2
f 3/9/3 1/10/3 2/1/3 4/11/3
f 5/12/4 9/13/4 11/14/4 7/15/4
f 1/10/5 6/16/5 8/2/5 2/1/5
f 7/15/6 11/14/6 12/17/6 8/18/6
f 5/12/7 7/15/7 8/2/7 6/16/7
f 11/14/8 9/13/8 10/19/8 12/17/8
f 9/13/9 5/12/9 6/20/9 10/19/9
f 3/8/10 10/7/10 6/16/10 1/10/10
